<svg width="19" height="17" viewBox="0 0 19 17" fill="none" xmlns="http://www.w3.org/2000/svg">
<path d="M11 6C13.4646 6 14.8627 7.5736 15.066 9.47399L15.1282 9.47398C16.7143 9.47398 18 10.711 18 12.237C18 13.763 16.7143 15 15.1282 15H6.8718C5.28575 15 4.00001 13.763 4.00001 12.237C4.00001 10.711 5.28575 9.47398 6.87182 9.47398L6.934 9.47399C7.13852 7.56111 8.53544 6 11 6ZM11 7C9.35057 7 7.9129 8.27029 7.9129 10.0249C7.9129 10.303 7.65892 10.5211 7.36809 10.5211L6.81819 10.5211C5.81403 10.5211 5.00001 11.2999 5.00001 12.2605C5.00001 13.2212 5.81403 14 6.81819 14H15.1818C16.186 14 17 13.2212 17 12.2605C17 11.2999 16.186 10.5211 15.1818 10.5211L14.6319 10.5211C14.3411 10.5211 14.0871 10.303 14.0871 10.0249C14.0871 8.24779 12.6494 7 11 7ZM3.80323 8.70081C3.88315 8.9329 3.78237 9.18351 3.57561 9.29948L3.49326 9.33635L2.69185 9.6123C2.43075 9.7022 2.14621 9.56342 2.05631 9.30232C1.97639 9.07024 2.07717 8.81963 2.28393 8.70366L2.36628 8.66678L3.16769 8.39083C3.42879 8.30093 3.71333 8.43971 3.80323 8.70081ZM8.91929 4.50023C9.25181 4.66241 9.54462 4.87337 9.79331 5.12029C9.38698 5.20342 9.00724 5.33003 8.65692 5.4951C8.60128 5.46105 8.54207 5.42885 8.48091 5.39902C7.34909 4.84699 5.98405 5.31701 5.43202 6.44884C5.04721 7.23783 5.15904 8.14013 5.6455 8.80137C5.31553 8.89962 5.00518 9.04248 4.72106 9.2221C4.124 8.29064 4.01237 7.07839 4.53323 6.01047C5.32736 4.38225 7.29107 3.70609 8.91929 4.50023ZM2.91582 4.66976L3.00013 4.70192L3.76194 5.07348C4.01013 5.19453 4.1132 5.49387 3.99215 5.74206C3.88455 5.96268 3.63608 6.06863 3.40788 6.00443L3.32357 5.97227L2.56176 5.60072C2.31357 5.47966 2.2105 5.18033 2.33155 4.93214C2.43915 4.71152 2.68762 4.60557 2.91582 4.66976ZM9.98918 2.2954C10.2098 2.403 10.3157 2.65147 10.2515 2.87967L10.2194 2.96398L9.84783 3.72579C9.72678 3.97398 9.42745 4.07705 9.17925 3.956C8.95863 3.8484 8.85268 3.59993 8.91688 3.37173L8.94904 3.28742L9.3206 2.52561C9.44165 2.27742 9.74098 2.17435 9.98918 2.2954ZM6.19931 2.26298L6.23619 2.34533L6.51213 3.14674C6.60204 3.40784 6.46326 3.69238 6.20216 3.78228C5.97007 3.8622 5.71946 3.76142 5.60349 3.55466L5.56662 3.47231L5.29067 2.6709C5.20077 2.4098 5.33955 2.12526 5.60064 2.03536C5.83273 1.95544 6.08334 2.05622 6.19931 2.26298Z" fill="#FDFDFD"/>
</svg>
