<svg width="227" height="38" viewBox="0 0 227 38" fill="none" xmlns="http://www.w3.org/2000/svg">
<path d="M0.0160001 37V1.172H6.464L14.836 20.464H15.044L14.68 1.172H21.544V37H15.044L6.776 17.916H6.568L6.828 37H0.0160001ZM43.3101 21.4H34.2621V30.344H44.5581V37H26.9301V1.172H43.9341V7.776H34.2621V14.952H43.3101V21.4ZM52.1789 37L45.0549 1.172H52.5949L55.9749 24.572H56.1829L60.1869 4.084H66.2189L69.9109 24.312H70.1189L73.4469 1.172H80.8829L73.6549 37H66.7389L63.0469 19.684H62.8389L58.8349 37H52.1789ZM81.6564 29.252C82.7657 29.5293 83.9791 29.824 85.2964 30.136C86.6484 30.4133 87.8271 30.552 88.8324 30.552C90.4617 30.552 91.5711 30.2573 92.1604 29.668C92.7497 29.044 93.0444 28.056 93.0444 26.704C93.0444 25.872 92.6977 25.0227 92.0044 24.156C91.3457 23.2893 90.3924 22.44 89.1444 21.608C88.0697 20.9147 87.0471 20.1693 86.0764 19.372C85.1057 18.5747 84.2564 17.7427 83.5284 16.876C82.8004 15.9747 82.2111 15.0387 81.7604 14.068C81.3444 13.0627 81.1364 11.988 81.1364 10.844C81.1364 9.388 81.3271 8.05333 81.7084 6.84C82.0897 5.62667 82.7137 4.56933 83.5804 3.668C84.4817 2.76666 85.6431 2.07333 87.0644 1.588C88.4857 1.068 90.2364 0.807998 92.3164 0.807998C93.4951 0.807998 94.7257 0.998664 96.0084 1.38C97.2911 1.72667 98.3831 2.07333 99.2844 2.42L97.1524 8.764C96.2857 8.27866 95.5057 7.932 94.8124 7.724C94.1537 7.48133 93.3391 7.36 92.3684 7.36C90.8084 7.36 89.7511 7.65466 89.1964 8.244C88.6417 8.83333 88.3644 9.52667 88.3644 10.324C88.3644 10.8093 88.5204 11.2947 88.8324 11.78C89.1444 12.2307 89.5431 12.6813 90.0284 13.132C90.5137 13.548 91.0511 13.964 91.6404 14.38C92.2644 14.796 92.8884 15.212 93.5124 15.628C94.7604 16.4253 95.8177 17.24 96.6844 18.072C97.5857 18.8693 98.3137 19.7187 98.8684 20.62C99.4577 21.4867 99.8737 22.4227 100.116 23.428C100.394 24.3987 100.532 25.4733 100.532 26.652C100.532 28.212 100.272 29.6507 99.7524 30.968C99.2671 32.2507 98.5391 33.36 97.5684 34.296C96.5977 35.232 95.3671 35.96 93.8764 36.48C92.4204 37 90.7391 37.26 88.8324 37.26C87.4111 37.1907 85.9551 37 84.4644 36.688C82.9737 36.376 81.6737 36.0293 80.5644 35.648L81.6564 29.252ZM102.797 1.172H110.181V30.448H119.957V37H102.797V1.172ZM138.931 21.4H129.883V30.344H140.179V37H122.551V1.172H139.555V7.776H129.883V14.952H138.931V21.4ZM146.968 7.88H140.624V1.172H160.644V7.88H154.248V37H146.968V7.88ZM167.382 7.88H161.038V1.172H181.058V7.88H174.662V37H167.382V7.88ZM200.224 21.4H191.176V30.344H201.472V37H183.844V1.172H200.848V7.776H191.176V14.952H200.224V21.4ZM204.309 1.64C205.592 1.46666 206.909 1.31066 208.261 1.172C209.648 0.998666 210.93 0.912 212.109 0.912C214.328 0.912 216.2 1.15467 217.725 1.64C219.285 2.12533 220.533 2.81867 221.469 3.72C222.44 4.62133 223.133 5.71333 223.549 6.996C223.965 8.27867 224.173 9.73467 224.173 11.364C224.173 13.4093 223.826 15.1947 223.133 16.72C222.474 18.2453 221.348 19.4413 219.753 20.308C220.897 21.6253 221.729 22.9427 222.249 24.26C222.804 25.5427 223.254 26.86 223.601 28.212C223.982 29.564 224.381 30.968 224.797 32.424C225.248 33.8453 225.924 35.3707 226.825 37H219.285C218.765 36.4453 218.314 35.7173 217.933 34.816C217.586 33.9147 217.257 32.944 216.945 31.904C216.633 30.864 216.321 29.824 216.009 28.784C215.732 27.744 215.42 26.7907 215.073 25.924C214.726 25.0227 214.31 24.2773 213.825 23.688C213.34 23.0987 212.768 22.7347 212.109 22.596H211.537V37H204.309V1.64ZM211.537 16.356H211.901C213.773 16.356 215.056 15.94 215.749 15.108C216.442 14.276 216.789 13.132 216.789 11.676C216.789 10.3587 216.546 9.26667 216.061 8.4C215.61 7.53333 214.692 7.13466 213.305 7.204L211.589 7.308L211.537 16.356Z" fill="#F7F7F4"/>
</svg>
